Coordinates
version=1
nRows=11
nColumns=36
inDegrees=yes

Units are S.I. units (second, meters, Newtons, ...)
If the header above contains a line with 'inDegrees', this indicates whether rotational values are in degrees (yes) or radians (no).

endheader
time	pelvis_tilt	pelvis_list	pelvis_rotation	pelvis_tx	pelvis_ty	pelvis_tz	hip_flexion_r	hip_adduction_r	hip_rotation_r	knee_angle_r	knee_angle_r_beta	ankle_angle_r	subtalar_angle_r	mtp_angle_r	hip_flexion_l	hip_adduction_l	hip_rotation_l	knee_angle_l	knee_angle_l_beta	ankle_angle_l	subtalar_angle_l	mtp_angle_l	lumbar_extension	lumbar_bending	lumbar_rotation	arm_flex_r	arm_add_r	arm_rot_r	elbow_flex_r	pro_sup_r	arm_flex_l	arm_add_l	arm_rot_l	elbow_flex_l	pro_sup_l
      1.27000000	     -3.35670981	      1.79948267	     -2.45818844	     -0.44336527	      1.06393196	     -0.56984539	     27.69109060	     -7.36736705	     -3.52366894	     11.07900869	      0.19336518	    -40.08336258	     -2.44921929	     -6.93824679	     27.59516786	     -4.66929281	     -9.26229015	      8.48014106	      0.14800638	    -37.27606858	     -0.73251710	     -6.93824679	    -15.29929545	      1.40673405	      1.71860158	     61.17938391	    -56.79527157	     39.18238443	     89.62219274	     95.53631668	     56.74353300	    -64.10325001	     34.77102098	     66.04890381	    108.14844827
      1.28000000	     -3.08650047	      1.72631404	     -2.63435405	     -0.43121301	      1.03945376	     -0.57008327	     28.55743842	     -7.36775803	     -2.45946353	     13.24209560	      0.23111817	    -41.19984675	     -2.79596338	     -7.38015709	     28.32164008	     -4.89543261	     -8.80709600	     10.54457068	      0.18403748	    -37.46990212	     -1.31074635	     -7.38015709	    -15.76804184	      2.01593539	     -3.41066119	     69.40699281	    -52.64707527	     46.94201490	     87.63198207	     97.94531698	     31.56114966	    -74.55353087	     10.73251053	     74.11069249	    109.75833028
      1.29000000	     -2.63935971	      1.69302254	     -2.82536415	     -0.41905078	      1.01409539	     -0.56987738	     29.37371732	     -7.27356955	     -1.13598534	     15.46553240	      0.26992446	    -42.98974400	     -2.60797763	     -7.38632800	     29.04856627	     -5.10116794	     -8.27425126	     13.06407783	      0.22801117	    -38.20518811	     -1.83050978	     -7.38632800	    -16.10831484	      1.84396362	     -2.31110474	     69.28680648	    -57.53102510	     46.51216589	     91.63415080	     97.51958149	     28.91773485	    -78.17215988	     10.85582132	     75.93500433	    108.96128740
      1.30000000	     -2.37219357	      1.44318998	     -3.02515475	     -0.40696141	      0.98786359	     -0.56956302	     30.49566914	     -6.77955317	      0.22094773	     18.64786086	      0.32546657	    -42.84385735	     -4.25303819	     -7.50857795	     30.18422854	     -5.47102367	     -7.42286765	     16.16878357	      0.28219851	    -38.74771227	     -2.97917107	     -7.50857795	    -17.29800017	      2.27818599	    -10.85101582	     76.69542908	    -48.68409413	     52.62711996	     87.43027910	     97.02110145	    -59.61233775	    -72.73583604	    -76.78198368	     85.75392094	    107.79714227
      1.31000000	     -2.35022775	      1.25489840	     -3.23942380	     -0.39587077	      0.96063907	     -0.56902393	     32.57014793	     -6.27044485	      1.20574037	     25.22815973	      0.44031445	    -34.40426559	     -7.92100813	     -7.50615749	     32.02469777	     -5.78154429	     -6.76155511	     21.07578599	      0.36784186	    -34.24275801	     -5.51335731	     -7.50615749	    -17.78155264	      2.12336635	    -13.20613954	     77.94530899	    -48.91504851	     53.24949414	     88.41699976	     95.33992571	    -75.57118567	    -65.11466899	    -90.95808110	     89.47754661	    107.17969803
      1.32000000	     -2.34435023	      1.36612980	     -3.32739985	     -0.38550969	      0.93215269	     -0.56873532	     35.53419128	     -6.14364689	      2.08446939	     35.16936334	      0.61382119	    -17.25865267	     -9.73561698	     -7.50443719	     34.55018578	     -5.74966526	     -6.44965535	     28.65779890	      0.50017295	    -21.83100559	     -9.17838730	     -7.50443719	    -18.23344924	      1.49530887	    -14.67861335	     77.68277234	    -50.84284427	     52.34320164	     90.38586242	     92.09940192	    -84.17270439	    -58.40337435	    -97.22030301	     92.56614448	    102.61202229
      1.33000000	     -2.22718086	      1.33898723	     -3.31410567	     -0.37560762	      0.90328381	     -0.56873452	     38.40877181	     -5.84069252	      2.96358738	     44.67020761	      0.77964220	     -1.52551185	     -9.89839655	     -7.50334270	     37.47312479	     -5.84017348	     -6.16748047	     37.55902400	      0.65552863	     -6.41952469	    -11.62751645	     -7.50334270	    -18.81136200	      0.99873528	    -15.72157190	     77.04146538	    -53.67129396	     51.55514378	     92.15544796	     89.33900009	    -89.47636758	    -52.19802594	   -100.08016582	     94.91569397	     98.56071375
      1.34000000	     -2.58691394	      0.98715714	     -3.38328925	     -0.36689453	      0.87530675	     -0.56837031	     41.24812557	     -5.14763545	      3.45081989	     51.72868689	      0.90283590	      9.02129906	     -9.96141330	     -7.50242615	     41.03916595	     -6.36939975	     -5.60134486	     45.63033619	      0.79639961	      4.54740605	    -12.98127842	     -7.50242615	    -19.06286437	      0.82754533	    -16.15969363	     74.00983069	    -56.79889897	     48.16089853	     93.72620806	     93.42238151	    -91.99988127	    -46.63796326	   -101.15732370	     95.82083420	    103.17377671
      1.35000000	     -4.36783672	      0.53452179	     -3.54794747	     -0.36036696	      0.84778917	     -0.56799215	     45.11638580	     -4.31849181	      3.70853523	     56.77248390	      0.99086677	     15.70387568	    -10.61352009	     -7.50202128	     46.40502437	     -7.16931346	     -4.59000703	     52.74050820	      0.92049552	      9.89034262	    -14.35829774	     -7.50202128	    -18.16209428	      0.88920592	    -15.69015414	     68.13810194	    -60.98212887	     42.61488109	     96.42191961	     92.89018737	    -92.76588950	    -42.16895515	   -100.16138741	     96.92022288	    102.16434475
      1.36000000	     -7.23105376	      0.32103302	     -3.87260219	     -0.35527785	      0.82140683	     -0.56771661	     50.44474523	     -3.51093489	      4.32938640	     61.55549693	      1.07434609	     19.85377652	    -10.75207824	     -7.50169709	     53.27617131	     -7.90032952	     -3.34242118	     59.58814288	      1.04000929	     12.19853083	    -15.12525899	     -7.50169709	    -16.39351633	      0.80157481	    -14.58902091	     57.16110317	    -65.18223219	     32.18207502	     99.48391997	     92.39070972	    -92.10821425	    -38.51514364	    -97.94255497	     97.72845346	    101.55785224
      1.37000000	     -9.46394395	      0.31177156	     -4.29588774	     -0.34968638	      0.79853643	     -0.56748894	     55.69591454	     -2.69381801	      5.29885030	     66.96279796	      1.16872130	     21.34562830	    -11.44926473	     -7.50137689	     59.45715598	     -8.49302110	     -2.32297275	     66.28141884	      1.15682899	     13.35875729	    -15.32110009	     -7.50137689	    -15.56331302	      0.62800557	    -12.14435048	     36.79668494	    -69.33499270	     12.50983880	    103.41424183	     93.50840920	    -90.28815973	    -37.00413078	    -94.71652637	     97.95869818	    102.41523698
